<svg width="140" height="121" viewBox="0 0 140 121" fill="none" xmlns="http://www.w3.org/2000/svg">
  <path fill-rule="evenodd" clip-rule="evenodd" d="M122 7.23798e-06L38 0C17.0132 -3.03995e-06 1.6466e-06 17.0132 0 38C-2.98144e-06 58.9868 17.0132 76 38 76L98.4839 76L122 7.23798e-06Z" fill="#514441"/>
  <path fill-rule="evenodd" clip-rule="evenodd" d="M11 121H101.43C122.417 121 139.43 103.987 139.43 83C139.43 62.0132 122.417 45 101.43 45H36.0333L11 121Z" fill="#30B2B2"/>
  <path fill-rule="evenodd" clip-rule="evenodd" d="M107.491 45.5496C105.387 45.1882 103.223 45 101.016 45H35.6186L26 74.2016C29.6525 75.3695 33.5453 76 37.5853 76L98.0693 76L107.491 45.5496Z" fill="#183A3A"/>
</svg>
